<svg width="48" height="48" viewBox="0 0 48 48" fill="none" xmlns="http://www.w3.org/2000/svg">
<path d="M16.8 7.2C16.1635 7.2 15.553 7.45285 15.1029 7.90294C14.6529 8.35303 14.4 8.96348 14.4 9.6C14.4 10.2365 14.6529 10.847 15.1029 11.2971C15.553 11.7471 16.1635 12 16.8 12H31.2C31.8365 12 32.447 11.7471 32.8971 11.2971C33.3471 10.847 33.6 10.2365 33.6 9.6C33.6 8.96348 33.3471 8.35303 32.8971 7.90294C32.447 7.45285 31.8365 7.2 31.2 7.2H16.8ZM9.6 16.8C9.6 16.1635 9.85286 15.553 10.3029 15.1029C10.753 14.6529 11.3635 14.4 12 14.4H36C36.6365 14.4 37.247 14.6529 37.6971 15.1029C38.1471 15.553 38.4 16.1635 38.4 16.8C38.4 17.4365 38.1471 18.047 37.6971 18.4971C37.247 18.9471 36.6365 19.2 36 19.2H12C11.3635 19.2 10.753 18.9471 10.3029 18.4971C9.85286 18.047 9.6 17.4365 9.6 16.8ZM4.8 26.4C4.8 25.127 5.30572 23.9061 6.20589 23.0059C7.10606 22.1057 8.32696 21.6 9.6 21.6H38.4C39.673 21.6 40.8939 22.1057 41.7941 23.0059C42.6943 23.9061 43.2 25.127 43.2 26.4V36C43.2 37.273 42.6943 38.4939 41.7941 39.3941C40.8939 40.2943 39.673 40.8 38.4 40.8H9.6C8.32696 40.8 7.10606 40.2943 6.20589 39.3941C5.30572 38.4939 4.8 37.273 4.8 36V26.4Z" fill="black"/>
</svg>
