<svg width="54" height="54" viewBox="0 0 54 54" fill="none" xmlns="http://www.w3.org/2000/svg">
<path d="M8.10001 10.8C8.10001 10.0839 8.38447 9.39716 8.89082 8.89081C9.39717 8.38446 10.0839 8.1 10.8 8.1H43.2C43.9161 8.1 44.6029 8.38446 45.1092 8.89081C45.6155 9.39716 45.9 10.0839 45.9 10.8V16.2C45.9 16.9161 45.6155 17.6028 45.1092 18.1092C44.6029 18.6155 43.9161 18.9 43.2 18.9H10.8C10.0839 18.9 9.39717 18.6155 8.89082 18.1092C8.38447 17.6028 8.10001 16.9161 8.10001 16.2V10.8ZM8.10001 27C8.10001 26.2839 8.38447 25.5972 8.89082 25.0908C9.39717 24.5845 10.0839 24.3 10.8 24.3H27C27.7161 24.3 28.4028 24.5845 28.9092 25.0908C29.4155 25.5972 29.7 26.2839 29.7 27V43.2C29.7 43.9161 29.4155 44.6028 28.9092 45.1092C28.4028 45.6155 27.7161 45.9 27 45.9H10.8C10.0839 45.9 9.39717 45.6155 8.89082 45.1092C8.38447 44.6028 8.10001 43.9161 8.10001 43.2V27ZM37.8 24.3C37.0839 24.3 36.3972 24.5845 35.8908 25.0908C35.3845 25.5972 35.1 26.2839 35.1 27V43.2C35.1 43.9161 35.3845 44.6028 35.8908 45.1092C36.3972 45.6155 37.0839 45.9 37.8 45.9H43.2C43.9161 45.9 44.6029 45.6155 45.1092 45.1092C45.6155 44.6028 45.9 43.9161 45.9 43.2V27C45.9 26.2839 45.6155 25.5972 45.1092 25.0908C44.6029 24.5845 43.9161 24.3 43.2 24.3H37.8Z" fill="black"/>
</svg>
