<svg width="27" height="26" viewBox="0 0 27 26" fill="none" xmlns="http://www.w3.org/2000/svg">
<path d="M11.2083 25H16.5417M23.2083 25V3.66667C23.2083 2.95942 22.9274 2.28115 22.4273 1.78105C21.9272 1.28095 21.2489 1 20.5417 1H7.20833C6.50109 1 5.82281 1.28095 5.32272 1.78105C4.82262 2.28115 4.54167 2.95942 4.54167 3.66667V25H23.2083ZM23.2083 25H25.875H23.2083ZM23.2083 25H16.5417H23.2083ZM4.54167 25H1.875H4.54167ZM4.54167 25H11.2083H4.54167ZM9.875 6.33333H11.2083H9.875ZM9.875 11.6667H11.2083H9.875ZM16.5417 6.33333H17.875H16.5417ZM16.5417 11.6667H17.875H16.5417ZM11.2083 25V18.3333C11.2083 17.9797 11.3488 17.6406 11.5989 17.3905C11.8489 17.1405 12.188 17 12.5417 17H15.2083C15.562 17 15.9011 17.1405 16.1511 17.3905C16.4012 17.6406 16.5417 17.9797 16.5417 18.3333V25H11.2083Z" stroke="black" stroke-width="2" stroke-linecap="round" stroke-linejoin="round"/>
</svg>
