<svg width="50" height="50" viewBox="0 0 50 50" fill="none" xmlns="http://www.w3.org/2000/svg">
<path fill-rule="evenodd" clip-rule="evenodd" d="M44.2675 23.2325C44.7362 23.7013 44.9995 24.3371 44.9995 25C44.9995 25.6629 44.7362 26.2987 44.2675 26.7675L26.7675 44.2675C26.2987 44.7362 25.6629 44.9995 25 44.9995C24.3371 44.9995 23.7013 44.7362 23.2325 44.2675L5.7325 26.7675C5.50001 26.5357 5.31561 26.2602 5.1899 25.9568C5.0642 25.6535 4.99966 25.3283 5 25V12.5C5 10.5109 5.79018 8.60322 7.1967 7.1967C8.60322 5.79018 10.5109 5 12.5 5H25C25.64 5 26.28 5.245 26.7675 5.7325L44.2675 23.2325ZM12.5 15C13.163 15 13.7989 14.7366 14.2678 14.2678C14.7366 13.7989 15 13.163 15 12.5C15 11.837 14.7366 11.2011 14.2678 10.7322C13.7989 10.2634 13.163 10 12.5 10C11.837 10 11.2011 10.2634 10.7322 10.7322C10.2634 11.2011 10 11.837 10 12.5C10 13.163 10.2634 13.7989 10.7322 14.2678C11.2011 14.7366 11.837 15 12.5 15Z" fill="black"/>
</svg>
