<svg width="54" height="54" viewBox="0 0 54 54" fill="none" xmlns="http://www.w3.org/2000/svg">
<path fill-rule="evenodd" clip-rule="evenodd" d="M31.023 8.559C29.997 4.347 24.003 4.347 22.977 8.559C22.8238 9.19192 22.5234 9.77974 22.1001 10.2746C21.6768 10.7695 21.1427 11.1574 20.5412 11.4069C19.9397 11.6563 19.2877 11.7602 18.6385 11.7101C17.9892 11.66 17.3609 11.4574 16.8048 11.1186C13.1004 8.8614 8.86141 13.1004 11.1186 16.8048C12.5766 19.197 11.2833 22.3182 8.56171 22.9797C4.34701 24.003 4.34701 29.9997 8.56171 31.0203C9.1948 31.1737 9.78271 31.4744 10.2776 31.898C10.7725 32.3216 11.1603 32.8561 11.4095 33.4579C11.6587 34.0598 11.7623 34.712 11.7117 35.3614C11.6612 36.0108 11.4579 36.6392 11.1186 37.1952C8.86141 40.8996 13.1004 45.1386 16.8048 42.8814C17.3608 42.5421 17.9892 42.3388 18.6386 42.2883C19.288 42.2377 19.9402 42.3413 20.5421 42.5905C21.1439 42.8397 21.6784 43.2276 22.102 43.7224C22.5256 44.2173 22.8263 44.8052 22.9797 45.4383C24.003 49.653 29.9997 49.653 31.0203 45.4383C31.1742 44.8055 31.4752 44.218 31.8989 43.7235C32.3226 43.229 32.857 42.8414 33.4586 42.5922C34.0603 42.3431 34.7123 42.2394 35.3615 42.2897C36.0108 42.3399 36.639 42.5427 37.1952 42.8814C40.8996 45.1386 45.1386 40.8996 42.8814 37.1952C42.5427 36.639 42.3399 36.0108 42.2897 35.3615C42.2395 34.7123 42.3431 34.0603 42.5922 33.4586C42.8414 32.857 43.229 32.3226 43.7235 31.8989C44.218 31.4752 44.8055 31.1742 45.4383 31.0203C49.653 29.997 49.653 24.0003 45.4383 22.9797C44.8052 22.8263 44.2173 22.5256 43.7224 22.102C43.2276 21.6784 42.8397 21.1439 42.5905 20.5421C42.3413 19.9402 42.2377 19.288 42.2883 18.6386C42.3388 17.9892 42.5421 17.3608 42.8814 16.8048C45.1386 13.1004 40.8996 8.8614 37.1952 11.1186C36.6392 11.4579 36.0108 11.6612 35.3614 11.7117C34.712 11.7623 34.0598 11.6587 33.4579 11.4095C32.8561 11.1603 32.3216 10.7725 31.898 10.2776C31.4744 9.78271 31.1737 9.19479 31.0203 8.5617L31.023 8.559ZM27 35.1C29.1483 35.1 31.2085 34.2466 32.7276 32.7276C34.2466 31.2085 35.1 29.1483 35.1 27C35.1 24.8517 34.2466 22.7915 32.7276 21.2724C31.2085 19.7534 29.1483 18.9 27 18.9C24.8518 18.9 22.7915 19.7534 21.2724 21.2724C19.7534 22.7915 18.9 24.8517 18.9 27C18.9 29.1483 19.7534 31.2085 21.2724 32.7276C22.7915 34.2466 24.8518 35.1 27 35.1V35.1Z" fill="black"/>
</svg>
