<svg width="54" height="54" viewBox="0 0 54 54" fill="none" xmlns="http://www.w3.org/2000/svg">
<path fill-rule="evenodd" clip-rule="evenodd" d="M10.8 8.1C9.36782 8.1 7.99431 8.66893 6.98162 9.68162C5.96892 10.6943 5.39999 12.0678 5.39999 13.5V40.5C5.39999 41.9322 5.96892 43.3057 6.98162 44.3184C7.99431 45.3311 9.36782 45.9 10.8 45.9H43.2C44.6322 45.9 46.0057 45.3311 47.0184 44.3184C48.0311 43.3057 48.6 41.9322 48.6 40.5V13.5C48.6 12.0678 48.0311 10.6943 47.0184 9.68162C46.0057 8.66893 44.6322 8.1 43.2 8.1H10.8ZM18.9 13.5H35.1V24.3H18.9V13.5ZM40.5 35.1V40.5H43.2V35.1H40.5ZM35.1 29.7H18.9V40.5H35.1V29.7ZM40.5 29.7H43.2V24.3H40.5V29.7ZM43.2 18.9V13.5H40.5V18.9H43.2ZM13.5 13.5V18.9H10.8V13.5H13.5ZM13.5 24.3H10.8V29.7H13.5V24.3ZM10.8 35.1H13.5V40.5H10.8V35.1Z" fill="black"/>
</svg>
