<svg width="21" height="17" viewBox="0 0 21 17" fill="none" xmlns="http://www.w3.org/2000/svg">
<path d="M10.875 2.253C12.043 1.477 13.629 1 15.375 1C17.122 1 18.707 1.477 19.875 2.253V15.253C18.707 14.477 17.122 14 15.375 14C13.629 14 12.043 14.477 10.875 15.253M10.875 2.253V15.253V2.253ZM10.875 2.253C9.707 1.477 8.121 1 6.375 1C4.629 1 3.043 1.477 1.875 2.253V15.253C3.043 14.477 4.629 14 6.375 14C8.121 14 9.707 14.477 10.875 15.253V2.253Z" stroke="black" stroke-width="2" stroke-linecap="round" stroke-linejoin="round"/>
</svg>
