<svg width="21" height="14" viewBox="0 0 21 14" fill="none" xmlns="http://www.w3.org/2000/svg">
<path d="M13.125 5L17.678 2.724C17.8304 2.64784 17.9998 2.61188 18.17 2.61955C18.3402 2.62721 18.5056 2.67825 18.6506 2.76781C18.7956 2.85736 18.9152 2.98248 18.9983 3.13127C19.0813 3.28007 19.1249 3.44761 19.125 3.618V10.382C19.1249 10.5524 19.0813 10.7199 18.9983 10.8687C18.9152 11.0175 18.7956 11.1426 18.6506 11.2322C18.5056 11.3218 18.3402 11.3728 18.17 11.3805C17.9998 11.3881 17.8304 11.3522 17.678 11.276L13.125 9V5ZM3.125 13H11.125C11.6554 13 12.1641 12.7893 12.5392 12.4142C12.9143 12.0391 13.125 11.5304 13.125 11V3C13.125 2.46957 12.9143 1.96086 12.5392 1.58579C12.1641 1.21071 11.6554 1 11.125 1H3.125C2.59457 1 2.08586 1.21071 1.71079 1.58579C1.33571 1.96086 1.125 2.46957 1.125 3V11C1.125 11.5304 1.33571 12.0391 1.71079 12.4142C2.08586 12.7893 2.59457 13 3.125 13Z" stroke="black" stroke-width="2" stroke-linecap="round" stroke-linejoin="round"/>
</svg>
