<svg width="54" height="54" viewBox="0 0 54 54" fill="none" xmlns="http://www.w3.org/2000/svg">
<path fill-rule="evenodd" clip-rule="evenodd" d="M27 48.6C32.7287 48.6 38.2227 46.3243 42.2735 42.2735C46.3243 38.2227 48.6 32.7287 48.6 27C48.6 21.2713 46.3243 15.7773 42.2735 11.7265C38.2227 7.6757 32.7287 5.39999 27 5.39999C21.2713 5.39999 15.7773 7.6757 11.7265 11.7265C7.6757 15.7773 5.39999 21.2713 5.39999 27C5.39999 32.7287 7.6757 38.2227 11.7265 42.2735C15.7773 46.3243 21.2713 48.6 27 48.6V48.6ZM29.7 16.2C29.7 15.4839 29.4155 14.7972 28.9092 14.2908C28.4028 13.7845 27.7161 13.5 27 13.5C26.2839 13.5 25.5972 13.7845 25.0908 14.2908C24.5845 14.7972 24.3 15.4839 24.3 16.2V27C24.3001 27.716 24.5847 28.4027 25.0911 28.9089L32.7267 36.5472C32.9776 36.798 33.2754 36.997 33.6031 37.1328C33.9309 37.2686 34.2822 37.3384 34.6369 37.3384C34.9917 37.3384 35.343 37.2686 35.6708 37.1328C35.9985 36.997 36.2963 36.798 36.5472 36.5472C36.798 36.2963 36.997 35.9985 37.1328 35.6708C37.2686 35.343 37.3384 34.9917 37.3384 34.6369C37.3384 34.2822 37.2686 33.9309 37.1328 33.6031C36.997 33.2754 36.798 32.9776 36.5472 32.7267L29.7 25.8822V16.2Z" fill="black"/>
</svg>
