<svg width="23" height="18" viewBox="0 0 23 18" fill="none" xmlns="http://www.w3.org/2000/svg">
<path d="M16.125 17H21.125V15C21.125 14.3765 20.9307 13.7686 20.5691 13.2606C20.2076 12.7527 19.6968 12.37 19.1077 12.1658C18.5187 11.9615 17.8806 11.9459 17.2823 12.121C16.6839 12.2962 16.155 12.6534 15.769 13.143L16.125 17ZM16.125 17H6.125H16.125ZM16.125 17V15C16.125 14.344 15.999 13.717 15.769 13.143L16.125 17ZM6.125 17H1.125V15C1.12505 14.3765 1.31934 13.7686 1.68086 13.2606C2.04239 12.7527 2.55319 12.37 3.14225 12.1658C3.73132 11.9615 4.36938 11.9459 4.96774 12.121C5.5661 12.2962 6.09503 12.6534 6.481 13.143L6.125 17ZM6.125 17V15C6.125 14.344 6.251 13.717 6.481 13.143L6.125 17ZM6.481 13.143C6.85236 12.215 7.49325 11.4195 8.321 10.8591C9.14876 10.2988 10.1254 9.9993 11.125 9.9993C12.1246 9.9993 13.1012 10.2988 13.929 10.8591C14.7568 11.4195 15.3976 12.215 15.769 13.143H6.481ZM14.125 4C14.125 4.79565 13.8089 5.55871 13.2463 6.12132C12.6837 6.68393 11.9206 7 11.125 7C10.3294 7 9.56629 6.68393 9.00368 6.12132C8.44107 5.55871 8.125 4.79565 8.125 4C8.125 3.20435 8.44107 2.44129 9.00368 1.87868C9.56629 1.31607 10.3294 1 11.125 1C11.9206 1 12.6837 1.31607 13.2463 1.87868C13.8089 2.44129 14.125 3.20435 14.125 4V4ZM20.125 7C20.125 7.53043 19.9143 8.03914 19.5392 8.41421C19.1641 8.78929 18.6554 9 18.125 9C17.5946 9 17.0859 8.78929 16.7108 8.41421C16.3357 8.03914 16.125 7.53043 16.125 7C16.125 6.46957 16.3357 5.96086 16.7108 5.58579C17.0859 5.21071 17.5946 5 18.125 5C18.6554 5 19.1641 5.21071 19.5392 5.58579C19.9143 5.96086 20.125 6.46957 20.125 7ZM6.125 7C6.125 7.53043 5.91429 8.03914 5.53921 8.41421C5.16414 8.78929 4.65543 9 4.125 9C3.59457 9 3.08586 8.78929 2.71079 8.41421C2.33571 8.03914 2.125 7.53043 2.125 7C2.125 6.46957 2.33571 5.96086 2.71079 5.58579C3.08586 5.21071 3.59457 5 4.125 5C4.65543 5 5.16414 5.21071 5.53921 5.58579C5.91429 5.96086 6.125 6.46957 6.125 7Z" stroke="black" stroke-width="2" stroke-linecap="round" stroke-linejoin="round"/>
</svg>
